<svg width="100" height="24" viewBox="0 0 100 24" fill="none" xmlns="http://www.w3.org/2000/svg">
<path fill-rule="evenodd" clip-rule="evenodd" d="M89.6818 0.943522C89.0693 0.339377 88.2389 0 87.3731 0C86.5073 0 85.6769 0.339377 85.0645 0.943522C82.5915 3.39451 78.6528 7.27226 76.1799 9.72324C75.8748 10.0209 75.6326 10.3753 75.4673 10.766C75.302 11.1567 75.2169 11.5758 75.2169 11.9992C75.2169 12.4226 75.302 12.8418 75.4673 13.2325C75.6326 13.6232 75.8748 13.9776 76.1799 14.2752C78.6528 16.7273 82.5915 20.6051 85.0645 23.0561C85.6772 23.6597 86.5075 23.9987 87.3731 23.9987C88.2388 23.9987 89.0691 23.6597 89.6818 23.0561C92.1739 20.6051 96.0934 16.7273 98.5879 14.2752C99.1914 13.6674 99.5294 12.8503 99.5294 11.9992C99.5294 11.1482 99.1914 10.331 98.5879 9.72324C96.0934 7.27114 92.1762 3.39339 89.6818 0.943522Z" fill="#EBB36B"/>
<path d="M87.8099 10.2354L89.2942 14.1177H88.3876L88.0873 13.2526H86.6015L86.2912 14.1177H85.4118L86.9133 10.2354H87.8099ZM87.8599 12.6112L87.358 11.1871H87.348L86.8303 12.6112H87.8599Z" fill="#FDF2F2"/>
<path fill-rule="evenodd" clip-rule="evenodd" d="M63.9291 0.538404C63.4603 0.189013 62.8888 0 62.3013 0C61.7138 0 61.1423 0.189013 60.6735 0.538404L51.2032 7.63754C50.7676 7.96056 50.4434 8.40824 50.2748 8.91964C50.1061 9.43103 50.1012 9.98131 50.2607 10.4955C51.1738 13.3971 53.001 19.1836 53.9435 22.1512C54.1129 22.6871 54.4516 23.1554 54.91 23.4878C55.3684 23.8201 55.9224 23.999 56.4912 23.9983H68.1115C68.6802 23.999 69.2343 23.8201 69.6926 23.4878C70.151 23.1554 70.4897 22.6871 70.6591 22.1512C71.6016 19.1836 73.4277 13.3971 74.3407 10.4955C74.4995 9.9826 74.4958 9.43401 74.3299 8.92324C74.1641 8.41247 73.8442 7.96388 73.413 7.63754C71.0273 5.86416 66.3885 2.38224 63.9291 0.538404Z" fill="#EBB36B"/>
<path d="M60.7059 10.8833V10.2354H63.1765V10.8884H62.2733V13.7648H61.6101V10.8833H60.7059Z" fill="#FDF2F2"/>
<path d="M37.2286 0C39.6329 0 41.9832 0.703786 43.9823 2.02236C45.9813 3.34094 47.5394 5.21509 48.4595 7.4078C49.3796 9.60051 49.6203 12.0133 49.1513 14.3411C48.6822 16.6688 47.5245 18.807 45.8244 20.4853C44.1243 22.1635 41.9582 23.3064 39.6002 23.7694C37.2421 24.2324 34.7979 23.9948 32.5766 23.0865C30.3553 22.1783 28.4568 20.6402 27.121 18.6668C25.7853 16.6934 25.0723 14.3734 25.0723 12C25.0723 8.8174 26.3531 5.76515 28.6328 3.51472C30.9126 1.26428 34.0045 0 37.2286 0Z" fill="#EBB36B"/>
<path d="M38.4356 12.8803C38.2423 13.0212 37.9751 13.0914 37.634 13.0909C37.288 13.0909 37.0203 13.0217 36.8298 12.8818C36.6393 12.742 36.5454 12.5268 36.5454 12.2363V10.9091H37.1077V12.2363C37.1074 12.2932 37.1133 12.3501 37.1252 12.4061C37.1363 12.4598 37.1621 12.5105 37.2006 12.5544C37.2425 12.5997 37.2972 12.6356 37.3598 12.659C37.4471 12.6893 37.5414 12.7032 37.6359 12.6997C37.8365 12.6997 37.9745 12.662 38.0509 12.5875C38.137 12.4851 38.1776 12.361 38.1659 12.2363V10.9091H38.7273V12.2363C38.726 12.5252 38.6288 12.7399 38.4356 12.8803Z" fill="#FDF2F2"/>
<path fill-rule="evenodd" clip-rule="evenodd" d="M24.3125 2.92956C24.3122 2.15249 23.9993 1.40735 23.4427 0.857982C22.886 0.308616 22.1311 1.56858e-07 21.344 2.13417e-07H2.96856C2.57878 -0.00014666 2.19278 0.0755168 1.83263 0.222675C1.47247 0.369833 1.14521 0.585605 0.869537 0.857654C0.593866 1.1297 0.375187 1.4527 0.225989 1.80821C0.0767909 2.16371 -2.83917e-08 2.54475 0 2.92956V21.0716C0.000300311 21.8483 0.313069 22.5932 0.869537 23.1423C1.42601 23.6915 2.18062 24 2.96743 24H21.344C22.1309 24 22.8856 23.6915 23.4423 23.1424C23.9989 22.5933 24.3119 21.8484 24.3125 21.0716V2.92956Z" fill="#EBB36B"/>
<path d="M11.5336 10.9091L12.0084 12.4097H12.0135L12.4627 10.9091H13.0909V13.0909H12.6731V11.5447H12.6673L12.1698 13.0909H11.8302L11.3327 11.5604H11.3269V13.0909H10.9091V10.9091H11.5336Z" fill="#FDF2F2"/>
</svg>
